<svg id="app_store" xmlns="http://www.w3.org/2000/svg" width="170" height="50" viewBox="0 0 170 50">
  <defs>
    <style>
      .cls-1 {
        fill: #fff;
        fill-rule: evenodd;
      }
    </style>
  </defs>
  <rect id="Rounded_Rectangle_873" data-name="Rounded Rectangle 873" width="170" height="50" rx="6" ry="6"/>
  <path id="Download_on_the" data-name="Download on the" class="cls-1" d="M1406.67,3689.53a4.483,4.483,0,0,0,2.18-.54,3.5,3.5,0,0,0,1.44-1.51,4.922,4.922,0,0,0,.51-2.29v-0.59a5.082,5.082,0,0,0-.51-2.26,3.644,3.644,0,0,0-1.44-1.52,4.108,4.108,0,0,0-2.13-.53h-2.61v9.24h2.56Zm0.08-8.25a2.64,2.64,0,0,1,2.1.89,3.7,3.7,0,0,1,.74,2.45v0.54a3.653,3.653,0,0,1-.78,2.5,2.826,2.826,0,0,1-2.2.87h-1.28v-7.25h1.42Zm5.39,4.83a3.687,3.687,0,0,0,.87,2.57,2.887,2.887,0,0,0,2.26.98,2.99,2.99,0,0,0,1.64-.45,2.888,2.888,0,0,0,1.1-1.24,4.034,4.034,0,0,0,.39-1.8v-0.08a3.7,3.7,0,0,0-.87-2.58,2.908,2.908,0,0,0-2.27-.98,3.05,3.05,0,0,0-1.62.44,2.922,2.922,0,0,0-1.1,1.25,3.949,3.949,0,0,0-.4,1.81v0.08Zm1.72-1.92a1.778,1.778,0,0,1,2.82.01,2.926,2.926,0,0,1,.54,1.83,3.181,3.181,0,0,1-.53,1.97,1.8,1.8,0,0,1-2.84.01,3,3,0,0,1-.53-1.84A3.154,3.154,0,0,1,1413.86,3684.19Zm10.46-1.53h-0.95l-1.6,5.14-1.35-5.14h-1.17l2,6.87h0.95l1.62-5.21,1.67,5.21h0.95l2-6.87h-1.17l-1.32,5.25Zm5.32,0v6.87h1.17v-4.89a2.1,2.1,0,0,1,.67-0.8,1.68,1.68,0,0,1,1.01-.31,1.328,1.328,0,0,1,1.03.36,1.5,1.5,0,0,1,.34,1.09v4.55h1.18v-4.54c-0.01-1.64-.75-2.46-2.2-2.46a2.493,2.493,0,0,0-2.05.99l-0.04-.86h-1.11Zm8.45-2.88h-1.18v9.75h1.18v-9.75Zm1.56,6.33a3.687,3.687,0,0,0,.87,2.57,2.887,2.887,0,0,0,2.26.98,2.99,2.99,0,0,0,1.64-.45,2.826,2.826,0,0,0,1.1-1.24,4.034,4.034,0,0,0,.39-1.8v-0.08a3.7,3.7,0,0,0-.87-2.58,2.893,2.893,0,0,0-2.27-.98,3.05,3.05,0,0,0-1.62.44,2.922,2.922,0,0,0-1.1,1.25,4.081,4.081,0,0,0-.4,1.81v0.08Zm1.72-1.92a1.675,1.675,0,0,1,1.4-.69,1.713,1.713,0,0,1,1.43.7,2.987,2.987,0,0,1,.53,1.83,3.181,3.181,0,0,1-.53,1.97,1.8,1.8,0,0,1-2.84.01,3,3,0,0,1-.53-1.84A3.154,3.154,0,0,1,1441.37,3684.19Zm11.48,5.34v-0.1a3.907,3.907,0,0,1-.24-1.51v-3.16a2.135,2.135,0,0,0-.7-1.63,2.7,2.7,0,0,0-1.86-.6,3.387,3.387,0,0,0-1.37.28,2.477,2.477,0,0,0-.99.76,1.591,1.591,0,0,0-.37,1h1.18a0.914,0.914,0,0,1,.43-0.77,1.7,1.7,0,0,1,1.05-.32,1.508,1.508,0,0,1,1.09.36,1.37,1.37,0,0,1,.36.99v0.54h-1.14a3.8,3.8,0,0,0-2.29.59,1.918,1.918,0,0,0-.82,1.66,1.87,1.87,0,0,0,.65,1.46,2.458,2.458,0,0,0,1.67.58,2.621,2.621,0,0,0,1.95-.85,2.7,2.7,0,0,0,.17.72h1.23Zm-4.13-1.21a1.061,1.061,0,0,1-.36-0.86c0-.84.72-1.26,2.15-1.26h0.92v1.41a1.682,1.682,0,0,1-.71.74,2.066,2.066,0,0,1-1.05.28A1.412,1.412,0,0,1,1448.72,3688.32Zm5.44-2.19a4.01,4.01,0,0,0,.76,2.55,2.348,2.348,0,0,0,1.94.98,2.378,2.378,0,0,0,1.96-.87l0.06,0.74h1.08v-9.75h-1.17v3.58a2.4,2.4,0,0,0-1.92-.83,2.362,2.362,0,0,0-1.96.97,4,4,0,0,0-.75,2.54v0.09Zm1.66-1.93a1.557,1.557,0,0,1,1.35-.67,1.739,1.739,0,0,1,1.62.97v3.16a1.722,1.722,0,0,1-1.64,1,1.561,1.561,0,0,1-1.33-.66,3.061,3.061,0,0,1-.48-1.83A3.347,3.347,0,0,1,1455.82,3684.2Zm8.87,1.91a3.73,3.73,0,0,0,.86,2.57,2.908,2.908,0,0,0,2.27.98,3.013,3.013,0,0,0,1.64-.45,2.953,2.953,0,0,0,1.1-1.24,4.171,4.171,0,0,0,.38-1.8v-0.08a3.7,3.7,0,0,0-.87-2.58,2.872,2.872,0,0,0-2.26-.98,3.025,3.025,0,0,0-1.62.44,2.922,2.922,0,0,0-1.1,1.25,3.949,3.949,0,0,0-.4,1.81v0.08Zm1.71-1.92a1.788,1.788,0,0,1,2.83.01,2.926,2.926,0,0,1,.54,1.83,3.248,3.248,0,0,1-.53,1.97,1.8,1.8,0,0,1-2.84.01,3,3,0,0,1-.53-1.84A3.219,3.219,0,0,1,1466.4,3684.19Zm6.01-1.53v6.87h1.18v-4.89a2.016,2.016,0,0,1,.67-0.8,1.65,1.65,0,0,1,1-.31,1.352,1.352,0,0,1,1.04.36,1.545,1.545,0,0,1,.34,1.09v4.55h1.18v-4.54c-0.02-1.64-.75-2.46-2.2-2.46a2.511,2.511,0,0,0-2.06.99l-0.04-.86h-1.11Zm10.81-1.66v1.66h-1.25v0.91h1.25v4.26a2.089,2.089,0,0,0,.4,1.35,1.474,1.474,0,0,0,1.19.48,3.624,3.624,0,0,0,.9-0.13v-0.95a2.964,2.964,0,0,1-.56.08,0.707,0.707,0,0,1-.58-0.21,0.956,0.956,0,0,1-.17-0.62v-4.26h1.28v-0.91h-1.28V3681h-1.18Zm5.01-1.22h-1.18v9.75h1.18v-4.89a2.016,2.016,0,0,1,.67-0.8,1.65,1.65,0,0,1,1-.31,1.352,1.352,0,0,1,1.04.36,1.594,1.594,0,0,1,.34,1.09v4.55h1.17v-4.54q-0.015-2.46-2.19-2.46a2.484,2.484,0,0,0-2.03.96v-3.71Zm11.42,8.55-0.72-.56a2.516,2.516,0,0,1-.75.67,2.043,2.043,0,0,1-1.05.26,1.864,1.864,0,0,1-1.45-.63,2.379,2.379,0,0,1-.59-1.64h4.65v-0.49a3.825,3.825,0,0,0-.74-2.52,2.579,2.579,0,0,0-2.08-.89,2.743,2.743,0,0,0-1.52.46,3.042,3.042,0,0,0-1.1,1.25,4.166,4.166,0,0,0-.39,1.83v0.22a3.42,3.42,0,0,0,.88,2.45,3,3,0,0,0,2.27.92,2.891,2.891,0,0,0,2.59-1.33h0Zm-1.57-4.34a2.269,2.269,0,0,1,.49,1.39v0.09h-3.44a2.445,2.445,0,0,1,.59-1.45,1.554,1.554,0,0,1,1.2-.52A1.441,1.441,0,0,1,1498.08,3683.99Z" transform="translate(-1350 -3672)"/>
  <path id="App_Store-2" data-name="App Store" class="cls-1" d="M1418.23,3711.53h2.02l-5.71-14.93h-1.72l-5.7,14.93h2.03l1.4-3.91h6.26Zm-4.55-12.5,2.54,6.98h-5.07Zm17.66,6.9a6.671,6.671,0,0,0-1.17-4.19,3.762,3.762,0,0,0-3.16-1.51,3.926,3.926,0,0,0-3.22,1.43l-0.09-1.23h-1.73v15.36h1.89v-5.34a4.058,4.058,0,0,0,3.18,1.28,3.712,3.712,0,0,0,3.14-1.54,6.7,6.7,0,0,0,1.16-4.09v-0.17Zm-2.7,3.17a2.555,2.555,0,0,1-2.17,1.09,2.809,2.809,0,0,1-2.61-1.52v-5.3a2.8,2.8,0,0,1,2.59-1.53,2.554,2.554,0,0,1,2.19,1.09,4.906,4.906,0,0,1,.8,2.96A5.386,5.386,0,0,1,1428.64,3709.1Zm14.48-3.17a6.733,6.733,0,0,0-1.16-4.19,3.781,3.781,0,0,0-3.17-1.51,3.94,3.94,0,0,0-3.22,1.43l-0.09-1.23h-1.73v15.36h1.89v-5.34a4.072,4.072,0,0,0,3.18,1.28,3.712,3.712,0,0,0,3.14-1.54,6.7,6.7,0,0,0,1.16-4.09v-0.17Zm-2.7,3.17a2.555,2.555,0,0,1-2.17,1.09,2.809,2.809,0,0,1-2.61-1.52v-5.3a2.8,2.8,0,0,1,2.59-1.53,2.554,2.554,0,0,1,2.19,1.09,4.838,4.838,0,0,1,.8,2.96A5.386,5.386,0,0,1,1440.42,3709.1Zm17.79-3.04a2,2,0,0,1,.77,1.7,2.053,2.053,0,0,1-.83,1.73,3.889,3.889,0,0,1-2.39.63,4.238,4.238,0,0,1-2.67-.78,2.592,2.592,0,0,1-1-2.14h-1.98a3.888,3.888,0,0,0,.73,2.33,4.788,4.788,0,0,0,2.05,1.61,6.924,6.924,0,0,0,2.87.59,6.051,6.051,0,0,0,3.79-1.09,3.482,3.482,0,0,0,1.41-2.9,3.741,3.741,0,0,0-.51-1.98,4.429,4.429,0,0,0-1.55-1.48,12.551,12.551,0,0,0-2.92-1.15,7.355,7.355,0,0,1-2.63-1.16,1.909,1.909,0,0,1-.78-1.54,2.14,2.14,0,0,1,.82-1.78,3.566,3.566,0,0,1,2.27-.65,3.479,3.479,0,0,1,2.43.78,2.75,2.75,0,0,1,.86,2.14h1.98a4.213,4.213,0,0,0-.66-2.29,4.478,4.478,0,0,0-1.87-1.64,6.036,6.036,0,0,0-2.74-.6,5.62,5.62,0,0,0-3.67,1.16,3.612,3.612,0,0,0-1.41,2.92,3.439,3.439,0,0,0,1.16,2.62,9.323,9.323,0,0,0,3.68,1.78A8.794,8.794,0,0,1,1458.21,3706.06Zm5.65-8.31v2.68h-2.02v1.47h2.02v6.88a3.345,3.345,0,0,0,.65,2.19,2.367,2.367,0,0,0,1.92.76,5.328,5.328,0,0,0,1.45-.2V3710a4.645,4.645,0,0,1-.9.12,1.164,1.164,0,0,1-.94-0.33,1.51,1.51,0,0,1-.28-1v-6.89h2.07v-1.47h-2.07v-2.68h-1.9Zm5.48,8.26a6.034,6.034,0,0,0,1.4,4.16,4.669,4.669,0,0,0,3.65,1.56,4.867,4.867,0,0,0,2.65-.71,4.771,4.771,0,0,0,1.78-2.01,6.649,6.649,0,0,0,.62-2.91v-0.13a6.043,6.043,0,0,0-1.4-4.17,4.672,4.672,0,0,0-3.67-1.57,4.913,4.913,0,0,0-2.61.71,4.785,4.785,0,0,0-1.78,2.01,6.471,6.471,0,0,0-.64,2.93v0.13Zm2.77-3.1a2.705,2.705,0,0,1,2.26-1.12,2.78,2.78,0,0,1,2.31,1.13,4.793,4.793,0,0,1,.86,2.96,5.151,5.151,0,0,1-.85,3.17,2.719,2.719,0,0,1-2.3,1.14,2.76,2.76,0,0,1-2.29-1.12,4.761,4.761,0,0,1-.85-2.97A5.091,5.091,0,0,1,1472.11,3702.91Zm15.07-2.54a2.023,2.023,0,0,0-.84-0.14,2.977,2.977,0,0,0-2.65,1.49l-0.03-1.29h-1.84v11.1h1.89v-7.88a2.509,2.509,0,0,1,2.54-1.59,5.46,5.46,0,0,1,.93.08v-1.77Zm10.34,9.22-1.16-.9a4.5,4.5,0,0,1-1.22,1.09,3.343,3.343,0,0,1-1.7.41,3.028,3.028,0,0,1-2.34-1.01,3.985,3.985,0,0,1-.96-2.65h7.52v-0.79a6.2,6.2,0,0,0-1.2-4.09,4.149,4.149,0,0,0-3.36-1.42,4.45,4.45,0,0,0-2.46.73,4.984,4.984,0,0,0-1.76,2.03,6.69,6.69,0,0,0-.63,2.95v0.35a5.514,5.514,0,0,0,1.41,3.96,4.852,4.852,0,0,0,3.67,1.48,4.664,4.664,0,0,0,4.19-2.14h0Zm-2.54-7.01a3.563,3.563,0,0,1,.78,2.24v0.15h-5.55a4.053,4.053,0,0,1,.96-2.35,2.549,2.549,0,0,1,1.93-.83A2.362,2.362,0,0,1,1494.98,3702.58Z" transform="translate(-1350 -3672)"/>
  <path class="cls-1" d="M1373.62,3712c-4.72-.03-8.62-9.75-8.62-14.7,0-8.09,6.01-9.86,8.33-9.86a9.47,9.47,0,0,1,3.14.78,6.863,6.863,0,0,0,1.79.52,5.313,5.313,0,0,0,1.29-.42,10.287,10.287,0,0,1,3.88-.95h0.01a7.919,7.919,0,0,1,6.65,3.39l0.48,0.74-0.69.53a5.941,5.941,0,0,0-2.82,4.89,5.521,5.521,0,0,0,3.05,5.11,1.358,1.358,0,0,1,.89,1.14c0,0.39-3.09,8.78-7.58,8.78a5.974,5.974,0,0,1-2.56-.63,5.245,5.245,0,0,0-2.28-.55,5.889,5.889,0,0,0-1.8.49,8.673,8.673,0,0,1-3.13.74h-0.03Zm10.28-32c0.12,4.25-2.89,7.21-5.91,7.02C1377.5,3683.63,1381.01,3680,1383.9,3680Z" transform="translate(-1350 -3672)"/>
</svg>
