<?xml version="1.0" encoding="utf-8"?>
<!-- Generator: Adobe Illustrator 23.1.0, SVG Export Plug-In . SVG Version: 6.00 Build 0)  -->
<svg version="1.1" id="Layer_1" xmlns="http://www.w3.org/2000/svg" xmlns:xlink="http://www.w3.org/1999/xlink" x="0px" y="0px"
	 viewBox="0 0 900 371.6" style="enable-background:new 0 0 900 371.6;" xml:space="preserve">
<style type="text/css">
	.st0{fill:#9BCFED;}
	.st1{fill:#214497;}
	.st2{fill:none;}
	.st3{fill:url(#SVGID_1_);}
	.st4{fill:url(#SVGID_2_);}
	.st5{fill:url(#SVGID_3_);}
	.st6{fill:url(#SVGID_4_);}
	.st7{fill:url(#SVGID_5_);}
	.st8{fill:url(#SVGID_6_);}
	.st9{fill:url(#SVGID_7_);}
	.st10{fill:url(#SVGID_8_);}
	.st11{fill:url(#SVGID_9_);}
	.st12{fill:url(#SVGID_10_);}
	.st13{fill:#FFFFFF;}
	.st14{fill:url(#SVGID_11_);}
</style>
<g>
	<path class="st0" d="M465.4,362c21.5-1.7,57.6-3.5,93.4-7.6c65.2-7.5,128.9-22.5,189.2-52.2c30.5-15,59.5-33.1,81.2-62.6
		c26.3-35.8,27.2-76.5-1.9-109.4c-18.2-20.6-40.1-38.6-63-52c-70.7-41.1-148-56.1-226.5-64.3c-64.7-6.8-129.5-5.8-194.1,2.3
		c-66.1,8.3-130.8,23.2-192,53.5c-29.1,14.4-56.6,32.1-77.7,59.8c-27.6,36.2-27.8,75.1-0.5,111.2c23.4,30.9,54.2,49.6,86.9,64.6
		C253.5,348.2,351.4,359.9,465.4,362"/>
	<path class="st1" d="M574,63.6l0,5.8L574,63.6C574,63.6,574,63.6,574,63.6z"/>
	<path class="st2" d="M372,117l-0.2-0.4l-0.4-1c0,0-2.5,8.6-2.6,8.8c0.6,0,1.2,0,1.7,0l4.6,0c0-0.1-0.1-0.2-0.1-0.3
		C374,121.5,372.7,118.3,372,117z"/>
	<path class="st2" d="M372,117l-0.2-0.4l-0.4-1c0,0-2.5,8.6-2.6,8.8c0.6,0,1.2,0,1.7,0l4.6,0c0-0.1-0.1-0.2-0.1-0.3
		C374,121.5,372.7,118.3,372,117z"/>
	<g>
		<linearGradient id="SVGID_1_" gradientUnits="userSpaceOnUse" x1="420.1627" y1="149.2047" x2="519.6855" y2="149.2047">
			<stop  offset="0" style="stop-color:#1F2156"/>
			<stop  offset="0.7419" style="stop-color:#1F2156"/>
			<stop  offset="0.7581" style="stop-color:#1F2156"/>
		</linearGradient>
		<path class="st3" d="M433,189.6c-3.9,0-6.9-0.7-9.8-4.5c-1.8-2.3-3.1-6-3.1-9.2l0.1-50.5c0-2.5,0-3.6,1.3-5.8c1.9-2.9,5.5-5,8.8-5
			c2.6,0,4.9,1.2,6.5,3.5c2.9,4,2.5,8.1,2.2,12.1c-0.1,0.8-0.1,1.7-0.2,2.6l0,0.6c-0.1,1.9-0.2,4-0.3,6c0,1.5-0.1,3.5-0.3,5.7
			c0,0.5-0.1,1-0.1,1.5l15.1-23.7c0.3-0.4,0.6-0.9,0.9-1.4c0.6-1,1.2-2.1,1.9-3c1.4-1.8,4.9-5,9-5c0.9,0,1.8,0.2,2.7,0.5
			c5,1.9,5.6,7.6,6,11.3l0.1,1.1c1,10.6,1.8,16.4,2.3,19.6c0.7-0.9,1.5-1.8,2.4-2.8c1.2-1.4,2.5-2.9,3.5-4.3l6.6-7.8
			c1.8-2,3.7-4.3,5.5-6.6c1.1-1.4,2.2-2.7,3.2-3.9l4.3-5.2c0.3-0.4,0.7-0.9,1.1-1.4c0.3-0.3,0.6-0.7,0.9-1.2c1.4-1.9,4.8-4,8.2-4
			c2.1,0,4,0.8,5.4,2.3c2.7,2.9,2.4,6.1,2.1,9.3c-0.1,0.6-0.1,1.2-0.2,1.9c-0.5,7.2-1.1,14.4-1.6,21.5c-0.4,5.1-0.8,10.1-1.2,15.1
			l-1.4,15.8c-0.3,2.8-0.6,3.9-3.1,5.2c-3.5,1.9-7.7,0.6-11.6-3.7c0,0-4.2-4.6-4-6.6l1.4-21.3c-1.3,1.7-2.8,3.6-4.3,5.5
			c-1.8,2.4-3.7,4.8-5.3,6.8l-6.9,8.6c-0.4,0.5-0.7,0.9-1,1.3c-0.6,0.8-1.3,1.7-2.7,3.1c-4.6,4.5-10.6,3.9-15-1.5
			c-1.4-1.8-1.6-2.2-1.9-4.4l-0.6-3.3c-0.7-3.8-1.5-8.8-2.1-13.1c-0.8,1.5-1.5,3-1.9,3.8l-0.8,1.6l-11.9,22.9
			c-0.3,0.6-0.6,1.2-0.9,1.8C440.6,185.2,438.5,189.6,433,189.6z M430.4,119c-2,0-4.2,1.5-5.1,3c-0.7,1.1-0.7,1.2-0.7,3.2l-0.1,50.8
			c0,2.5,1.1,5.2,2.1,6.5c1.7,2.2,3.1,2.8,6.4,2.8c2.7,0,3.7-1.9,5.6-5.8c0.3-0.6,0.6-1.3,1-1.9l12.7-24.5c4.5-9,5.3-10.1,6.2-10.6
			l3.2-1.9l0,3.7c0,3.9,1.6,13.1,2.7,19.2l0.5,3.1c0.3,1.6,0.3,1.6,1.1,2.6c2.8,3.4,5.8,4,8.6,1.2c1.2-1.1,1.7-1.9,2.3-2.6
			c0.4-0.5,0.7-0.9,1.1-1.4l6.8-8.5c1.6-2,3.4-4.4,5.2-6.7c2.1-2.8,4.1-5.4,5.8-7.4c0.2-0.2,0.4-0.5,0.7-0.9c1.1-1.5,1.9-2.5,2.7-3
			l3.5-2l-2.1,31.5c1,2,5.8,8.5,9.3,6.7c0.6-0.3,0.7-0.4,0.8-0.5c0,0,0-0.5,0-1.1l1.4-16c0.4-5,0.8-10.1,1.2-15.1
			c0.6-7.1,1.2-14.3,1.6-21.5c0-0.7,0.1-1.3,0.2-2c0.3-3,0.3-4.5-1-5.9c-0.6-0.6-1.4-0.9-2.3-0.9c-1.9,0-4.1,1.3-4.7,2.2
			c-0.4,0.5-0.7,1-1.1,1.4c-0.3,0.4-0.6,0.7-0.9,1.2l-4.4,5.4c-1,1.2-2,2.5-3.1,3.8c-1.9,2.3-3.8,4.7-5.6,6.7l-6.5,7.7
			c-1,1.4-2.4,2.9-3.6,4.4c-1,1.2-2,2.3-2.8,3.3l-1.4,1.7l0.1,1.3l-3.4,0.8l-1-1.1c-0.6-0.8-1.4-1.9-3.7-25.1l-0.1-1.1
			c-0.4-3.8-0.9-6.8-3.2-7.7c-2.4-0.9-5.6,1.6-6.7,3.1c-0.5,0.7-1.1,1.6-1.6,2.5c-0.3,0.6-0.6,1.1-0.9,1.6l-22.6,35.4l-0.6-6.2
			c-0.2-2.3,0-5.9,0.2-9.5c0.1-2,0.2-4,0.3-5.4c0-2,0.1-4.2,0.3-6.2l0-0.6c0.1-0.9,0.1-1.8,0.2-2.7c0.3-3.6,0.6-6.5-1.4-9.2
			C432.6,119.5,431.6,119,430.4,119z"/>
		<linearGradient id="SVGID_2_" gradientUnits="userSpaceOnUse" x1="422.3154" y1="149.204" x2="517.5372" y2="149.204">
			<stop  offset="0" style="stop-color:#1F2156"/>
			<stop  offset="0.7419" style="stop-color:#1F2156"/>
			<stop  offset="0.7581" style="stop-color:#1F2156"/>
		</linearGradient>
		<path class="st4" d="M475.1,150.6c-1.1-1.5-3.1-21.8-3.4-25.2c-0.4-3.6-0.9-8.1-4.6-9.5c-3.7-1.4-7.6,1.8-9.2,3.8
			c-0.9,1.2-1.8,2.9-2.7,4.3L436,154.1c-0.3-3.4,0.4-10.8,0.5-14.7c0-2.2,0.2-4.5,0.3-6.7c0.3-5,1.4-9.2-1.6-13.3
			c-3.5-4.8-9.6-2-11.8,1.4c-1.1,1.7-1,2.3-1,4.6l-0.1,50.5c0,2.9,1.2,6,2.6,7.9c2.3,2.9,4.4,3.6,8.1,3.6c4.8,0,6.1-4.3,8.5-8.9
			l11.9-22.9c1-2,5.3-10.8,6.2-11.3c0,4.8,2.3,17.1,3.2,22.7c0.3,2.1,0.3,2.1,1.5,3.6c3.4,4.2,7.8,5.3,11.8,1.4
			c1.9-1.9,2.4-2.8,3.5-4.2l6.9-8.6c3.5-4.2,7.8-10.3,11-14c0.6-0.7,2.1-3,2.9-3.4l-1.9,27.9c0,0.6,6.4,11.4,12.5,8.2
			c1.8-1,1.8-1.2,2-3.5l1.4-15.8c0.9-12.1,2.1-24.4,2.9-36.6c0.3-3.9,1.1-6.9-1.4-9.5c-3.2-3.4-8.7-0.8-10.4,1.5
			c-0.7,1-1.4,1.6-2,2.6l-4.3,5.3c-2.7,3.2-5.9,7.4-8.7,10.5l-6.5,7.7c-2,2.6-4.6,5.4-6.5,7.8l-1.6,2.1
			C475.3,150.7,475.9,150.4,475.1,150.6"/>
		<linearGradient id="SVGID_3_" gradientUnits="userSpaceOnUse" x1="520.4522" y1="146.2857" x2="613.8954" y2="146.2857">
			<stop  offset="0" style="stop-color:#1F2156"/>
			<stop  offset="0.7419" style="stop-color:#1F2156"/>
			<stop  offset="0.7581" style="stop-color:#1F2156"/>
		</linearGradient>
		<path class="st5" d="M585.7,191.5c-1.3,0-2.5-0.3-3.5-1c-0.2-0.1-0.7-0.3-1.1-0.4c-1.6-0.6-4.4-1.6-7.2-4.2
			c-1.5-1.4-2.6-2.5-3.3-3.4c-1,0.3-2.3,0.8-3.3,1.1c-1.5,0.5-2.9,1-3.6,1.2c-8.6,2.5-15.6,3.7-21.5,3.7c-14.2,0-19.2-7.1-20.9-13.1
			c-2.3-8.1,1-14.6,3.4-19.4c1.3-2.6,4.3-7,6-8.9l0.5-0.6c0.3-0.3,0.5-0.6,0.8-0.9c0.3-0.3,0.6-0.6,0.9-0.9l0.5-0.5
			c0.5-0.5,0.7-0.7,1.1-0.9c0.1-0.1,0.3-0.2,0.5-0.4c8.1-7.2,20-12,32.6-13l0.9-0.1c2.6-0.3,4.1,0,5.6,1.5c0.9,0.9,1.9,2,2.7,3.3
			c0.1-0.3,0.1-0.6,0.2-1c0.4-2.5,1.9-11.7,1.9-12.8c-0.1-1.7-0.5-2.1-0.5-2.2c-0.6,0.1-1.9,0.8-2.9,1.3c-0.7,0.3-1.3,0.7-1.9,1
			c-0.3,0.1-29.9,12.4-33.2,12.6c-6,0.4-9.7-3.6-9.7-9.9v-0.5l0.2-0.5c0.7-1.3,2.1-1.9,3.1-2.4c0.2-0.1,0.4-0.2,0.5-0.2
			c5.3-2.8,11.8-5.8,17.5-8.5l1.9-0.9c6-2.8,17.4-7.4,24.5-8.9c6.9-1.4,9.3-1.5,14.4,2.5c1.9,1.5,3.3,4.7,3.9,6.3
			c2.5,7.8,0.3,16.4-1.3,22.8c-0.9,3.7-1.6,7.7-2.2,11.6l-0.4,2.3c-0.2,1.2-0.5,2.9-0.9,4.8c-1.3,7.1-3.3,17.7-3,22.4
			c0.2,0,0.9,0,1.4-0.1c2.9-0.5,6.1-1.9,8.8-3.1c2.8-1.2,5-2.2,6.8-2.2c4.6,0,7.3,3.4,7.9,6.7c0.7,3.9-1.2,7.4-4.7,8.8l-1,0.4
			c-6.2,2.5-14.7,5.9-21.5,6.4C586.3,191.5,586,191.5,585.7,191.5z M572.9,177.7l0.6,1.5c0.1,0.2,0.6,1,3.3,3.6
			c2.1,2,4.2,2.7,5.7,3.3c0.8,0.3,1.4,0.5,2,0.9c0.5,0.3,1,0.4,1.8,0.3c6.1-0.5,14.2-3.7,20.2-6.1l1-0.4c1.9-0.8,2.3-2.6,2.1-4
			c-0.3-1.5-1.4-3.2-3.7-3.2c-0.9,0-3.1,1-5.1,1.8c-3,1.3-6.4,2.8-9.9,3.4c-0.5,0.1-1.1,0.1-1.7,0.1c-3.3,0-4.6-2-4.7-3.9
			c-0.4-5.2,1.6-15.8,3.1-23.5c0.3-1.9,0.7-3.5,0.9-4.7l0.4-2.2c0.7-4,1.3-8.1,2.3-12c1.6-6.1,3.5-13.8,1.3-20.4
			c-0.5-1.7-1.7-3.6-2.4-4.2c-2.6-2.1-3.9-2.5-5.5-2.5c-1.3,0-3,0.3-5.4,0.8c-6.7,1.4-18,6-23.5,8.6l-1.9,0.9
			c-5.7,2.6-12.1,5.6-17.4,8.4c-0.2,0.1-0.5,0.2-0.8,0.4c-0.2,0.1-0.5,0.2-0.7,0.3c0.2,2.5,1.4,4.9,5.1,4.7
			c2.6-0.4,28.7-11,31.8-12.3c0.5-0.2,1.1-0.5,1.7-0.8c1.6-0.8,3.3-1.7,5-1.7c2,0,4.4,1.1,4.8,6.2c0.1,1.5-2,13.7-2,13.8
			c-0.5,2.6-0.9,5.3-1.4,8c-1,6-2,12.2-3.5,18.1l-0.1,0.6c-0.7,3.1-1.1,3.6-3.9,5.2l-4.6,2.8c-3.1,1.9-6.6,3.5-10.5,5
			c-4.2,1.5-8.3,2.1-13.7,2c-3.1-0.1-6.1-1.5-7.8-3.7c-1.5-1.9-2-4.2-1.4-6.6c1-4.6,5.8-9.7,6.3-10.3c1.6-1.7,1.9-1.9,2.9-2.8
			l1.1-0.9l4.7-3.3c7.6-4.4,14.1-6.2,23.8-6.5c1.5-2.6,1-4.5-2-7.4c-0.4-0.3-0.5-0.4-0.9-0.4c-0.4,0-0.8,0-1.2,0.1l-1,0.1
			c-11.7,0.9-22.7,5.3-30.1,11.9c-0.3,0.3-0.5,0.4-0.7,0.6c-0.2,0.1-0.4,0.3-0.6,0.5l-0.6,0.6c-0.3,0.3-0.5,0.5-0.8,0.8
			c-0.3,0.3-0.5,0.5-0.7,0.8l-0.6,0.6c-1.5,1.6-4.2,5.7-5.4,7.9c-2.7,5.4-4.8,10.3-3.1,16.3c3,10.6,15.1,12.8,37.1,6.4
			c0.7-0.2,2.1-0.7,3.4-1.1c3.3-1.1,4.7-1.6,5.4-1.6L572.9,177.7z M574.8,146.1l-0.6,0c-9.6,0.2-15.5,1.7-22.7,5.9l-5.3,3.9
			c-0.9,0.8-1.1,0.9-2.6,2.5c-2.2,2.3-4.8,5.9-5.3,8.2c-0.3,1.2-0.1,2.2,0.6,3.1c0.9,1.2,2.7,2,4.6,2.1c4.8,0.1,8.3-0.3,12.1-1.7
			c3.7-1.3,6.9-2.8,9.8-4.6l4.6-2.9c1.6-0.9,1.6-0.9,2-2.5l0.1-0.6C573.2,155.2,574,150.7,574.8,146.1z"/>
		<linearGradient id="SVGID_4_" gradientUnits="userSpaceOnUse" x1="522.6023" y1="146.2824" x2="611.737" y2="146.2824">
			<stop  offset="0" style="stop-color:#1F2156"/>
			<stop  offset="0.7419" style="stop-color:#1F2156"/>
			<stop  offset="0.7581" style="stop-color:#1F2156"/>
		</linearGradient>
		<path class="st6" d="M532.7,123.8c0,4.8,2.5,8.1,7.4,7.8c2.6-0.2,31.1-11.9,32.5-12.5c3.5-1.5,7.9-5.3,8.4,1.8
			c0.1,1-1.7,11.6-2,13.2c-1.6,8.6-2.7,17.6-4.8,26c-0.7,3-0.6,3-3.1,4.5l-4.6,2.9c-3.2,1.9-6.6,3.5-10.1,4.8c-4.1,1.5-8,2-12.9,1.8
			c-4-0.1-8.3-3-7.2-7.8c0.7-3.1,3.7-7.1,5.8-9.3c2.1-2.2,1.8-1.8,3.9-3.6l4.5-3.2c7.5-4.4,13.8-6,23.7-6.2c3.1-4.3,2-7.5-1.6-11.1
			c-1.4-1.4-2.5-1-4.8-0.8c-11.1,0.9-23,4.9-31.4,12.5c-0.6,0.5-0.8,0.6-1.4,1.2c-0.5,0.5-0.9,0.9-1.4,1.4c-0.5,0.5-0.8,0.8-1.3,1.4
			c-1.7,1.8-4.5,6.1-5.7,8.4c-2.6,5.3-5.2,10.9-3.2,17.9c4.7,16.7,28.1,11.3,39.8,7.9c1.9-0.5,7.6-2.6,8.5-2.7
			c0.5,1.3,2.9,3.4,3.8,4.3c3.5,3.3,6.7,3.6,8,4.4c1,0.7,2,0.7,3.1,0.6c6.8-0.5,15.5-4.2,21.8-6.7c5.7-2.3,4-11.3-2.4-11.4
			c-2.9,0-9.4,4.3-15.3,5.2c-1.7,0.3-3.7,0.2-3.9-1.8c-0.5-6.2,2.9-21.8,3.9-27.7c0.8-4.7,1.5-9.6,2.7-14.1
			c1.7-6.6,3.6-14.5,1.3-21.6c-0.6-1.7-1.9-4.2-3.1-5.2c-4.6-3.6-6.5-3.3-12.6-2c-6.6,1.4-17.8,5.8-24,8.7c-6,2.8-13.4,6.2-19.3,9.3
			C534.5,122.5,533.1,122.9,532.7,123.8"/>
		<linearGradient id="SVGID_5_" gradientUnits="userSpaceOnUse" x1="722.6109" y1="153.4339" x2="790.436" y2="153.4339">
			<stop  offset="0" style="stop-color:#1F2156"/>
			<stop  offset="0.7419" style="stop-color:#1F2156"/>
			<stop  offset="0.7581" style="stop-color:#1F2156"/>
		</linearGradient>
		<path class="st7" d="M752.4,185.6c-3.9,0-7.7-0.8-11.3-2.3c-2.8-1.2-7.8-4.7-9.8-6.9c-3-3.3-4.7-5.5-6.6-10
			c-3.8-9.1-2.6-19,3.2-26.5l0.2-0.3c1.1-1.5,2.1-2.8,3.5-4.1c4.6-4.5,13.4-10.5,19.4-12.6c2.1-0.7,3.3-0.9,5.1-1.2l1.5-0.2
			c1-0.2,2.1-0.3,3.2-0.3c7.3,0,13.9,3.8,16.4,5.4l4.4,3.6c3,3.2,5.5,7,6.8,10.3c3.6,9.4,2.1,19.2-4.5,27.7l-0.9,1
			c-0.6,0.7-1.3,1.5-1.9,2.2C776.2,176.7,765.7,185.6,752.4,185.6C752.4,185.6,752.4,185.6,752.4,185.6z M766.2,136.1
			c-4.5,0-7.5,0.4-11.4,2.8c-1.3,0.8-2.6,1.7-3.4,2.6c-0.9,0.8-1.6,1.6-2.4,2.2c-2.5,2.3-4.2,3.9-6.9,8c-1.3,2-3.3,6-3.3,8.9
			c0,3.5,0.6,4.9,2.9,6.5c3.9,2.7,4.8,2.7,9.5,2.7c3.7,0,10.2-3.8,13.6-7.3l3.5-3.3c0.3-0.3,0.4-0.5,0.6-0.8
			c0.2-0.3,0.4-0.5,0.7-0.9l0.6-0.7c0.8-1,1.4-1.6,2.1-2.9c2.3-3.8,3.4-6.1,3.4-10.4C775.5,139.3,770.6,136.1,766.2,136.1z"/>
		<linearGradient id="SVGID_6_" gradientUnits="userSpaceOnUse" x1="724.7647" y1="153.4335" x2="788.2961" y2="153.4335">
			<stop  offset="0" style="stop-color:#1F2156"/>
			<stop  offset="0.7419" style="stop-color:#1F2156"/>
			<stop  offset="0.7581" style="stop-color:#1F2156"/>
		</linearGradient>
		<path class="st8" d="M774,155c-1,1.7-1.8,2.5-2.9,3.8c-0.6,0.7-0.7,1.1-1.5,1.8l-3.4,3.3c-3.5,3.5-10.6,7.9-15.2,7.9
			c-4.8,0-6.2,0-10.7-3c-3-2-3.8-4.2-3.8-8.3c0-3.5,2.2-7.9,3.6-10.1c3.6-5.5,5.8-6.9,9.6-10.5c1-1,2.5-2.1,3.8-2.9
			c4.3-2.6,7.7-3.1,12.5-3.1c5.4,0,11.5,3.9,11.5,9.5C777.7,148.3,776.4,151.1,774,155 M786.5,141.3c-1.3-3.4-3.7-6.9-6.1-9.4
			l-4.2-3.5c-4.8-3.2-11.9-5.9-18-4.8c-2.6,0.5-3.8,0.5-6.2,1.4c-5.6,1.9-14.1,7.8-18.6,12.1c-1.4,1.3-2.3,2.6-3.6,4.2
			c-5.4,7-6.3,16.1-2.9,24.3c1.8,4.2,3.4,6.3,6.2,9.3c1.8,1.9,6.6,5.3,9,6.3c14,6,28.1-1.4,37.7-11.4c0.6-0.6,1.3-1.3,1.8-2l0.8-1
			C788.1,159.4,790.1,150.5,786.5,141.3"/>
		<linearGradient id="SVGID_7_" gradientUnits="userSpaceOnUse" x1="614.3993" y1="153.011" x2="719.1691" y2="153.011">
			<stop  offset="0" style="stop-color:#1F2156"/>
			<stop  offset="0.7419" style="stop-color:#1F2156"/>
			<stop  offset="0.7581" style="stop-color:#1F2156"/>
		</linearGradient>
		<path class="st9" d="M662,187.8c-7.2,0-13.9-0.7-20-2.1c-6.1-1.4-11.4-3.6-15.9-6.4c-3.6-2.2-7.2-4.5-9.5-8.7
			c-2.1-3.9-2.2-6.6-2.2-10.7c0-1.5,0.4-2.9,0.6-3.8c0.3-1.1,0.7-2.1,1.1-3.1c0.8-2.1,2.1-4.3,3.9-6.6c1.8-2.3,3.9-4.6,6.4-6.9
			c2.1-1.9,4.7-3.8,8.2-5.9c3.4-2.1,7.1-4.1,10.8-5.8c5.1-2.4,10.8-4.4,17-6c6.2-1.6,12.5-2.8,18.9-3.4c0.9-0.1,1.8-0.2,2.7-0.2
			c0.3,0,0.7,0,1,0c1.5,0.1,2.7,0.6,3.9,1.3c1.3,0.8,2.3,2.1,2.9,3.6c0.5,1.3,0.7,2.7,0.7,4c-0.1,1.5-0.5,2.8-1.2,4
			c-0.8,1.3-1.9,2.3-3.2,2.9c-1.2,0.5-3,0.8-5.2,1l-0.7,0.1c-14.9,1.7-25.9,4.9-36.8,10.6c-0.8,0.4-1.6,0.9-2.4,1.4
			c-0.8,0.5-1.5,1-2.2,1.5c-0.9,0.7-1.8,1.3-2.7,2.1c-0.5,0.5-1.1,0.9-1.6,1.4c-0.4,0.3-0.9,0.8-1.4,1.5c-0.6,0.8-1.2,1.6-1.7,2.4
			c-0.6,1-1,2-1.2,2.9c-0.3,1.5,0.1,2.7,1.3,3.9c1.2,1.2,3.1,2.3,5.5,3.2c3.8,1.3,8.7,2.1,13.2,2.1h1.3c5.3,0,9.6-0.2,14.2-0.6
			c3.7-0.3,7.5-0.8,11.3-1.4c4.2-0.6,8.3-1.4,11.4-2l0.4-0.1c2.3-0.4,4.6-0.9,6.8-1.4c2.8-0.6,5-1.2,7-1.7c1.7-0.5,3.3-0.7,4.8-0.7
			c2.3,0,4.4,0.6,6,1.7c1.3,0.9,2.4,2.1,3,3.5c0.6,1.3,0.8,2.8,0.6,4.4c-0.4,2.8-2,5.3-4.7,7.1c-1.9,1.3-5,2.3-7.2,3l-0.4,0.1
			c-4.6,1.5-9,2.8-13.1,3.8c-5.5,1.3-10.5,2.3-15.4,3C672.5,187.4,667.1,187.8,662,187.8z"/>
		<linearGradient id="SVGID_8_" gradientUnits="userSpaceOnUse" x1="616.5549" y1="153.0116" x2="717.0143" y2="153.0116">
			<stop  offset="0" style="stop-color:#1F2156"/>
			<stop  offset="0.7419" style="stop-color:#1F2156"/>
			<stop  offset="0.7581" style="stop-color:#1F2156"/>
		</linearGradient>
		<path class="st10" d="M616.6,159.7c0-1,0.3-2.1,0.5-3.1c0.3-1,0.6-2,1-2.9c0.9-2.2,2.2-4.2,3.6-6.1c1.9-2.4,4-4.6,6.2-6.6
			c2.4-2.2,5.1-4,7.8-5.7c3.4-2.1,7-4,10.5-5.7c5.3-2.5,11-4.4,16.6-5.8c6.1-1.6,12.3-2.7,18.5-3.3c1.1-0.1,2.2-0.2,3.3-0.1
			c1.1,0.1,2,0.4,2.9,1c1,0.6,1.7,1.6,2.1,2.6c0.4,1,0.6,2,0.5,3.1c0,1-0.3,2.1-0.8,3c-0.5,0.9-1.3,1.6-2.2,2
			c-1.2,0.5-3.9,0.7-5.3,0.9c-13.6,1.6-25.2,4.4-37.6,10.8c-0.9,0.4-1.7,0.9-2.5,1.5c-0.8,0.5-1.6,1-2.3,1.6c-1,0.7-1.9,1.4-2.8,2.2
			c-0.5,0.5-1.1,0.9-1.6,1.3c-0.6,0.5-1.2,1.1-1.7,1.8c-0.7,0.8-1.3,1.7-1.8,2.6c-0.7,1.1-1.3,2.3-1.5,3.6c-0.4,2.3,0.3,4.1,1.8,5.8
			c1.7,1.7,4.2,2.9,6.4,3.7c4.3,1.5,9.4,2.2,13.9,2.2h1.3c5,0,9.4-0.2,14.4-0.6c3.8-0.4,7.7-0.8,11.5-1.4c3.8-0.6,7.6-1.3,11.5-2
			c2.4-0.5,4.8-0.9,7.2-1.5c2.4-0.5,4.8-1.1,7.2-1.7c2.9-0.8,6.4-1,9,0.7c0.9,0.6,1.7,1.5,2.2,2.6c0.5,1,0.6,2.1,0.4,3.2
			c-0.3,2.4-1.9,4.3-3.8,5.6c-1.8,1.2-5.1,2.2-7.1,2.9c-4.2,1.4-8.6,2.7-12.9,3.7c-5,1.2-10.1,2.2-15.2,3c-5.3,0.8-10.7,1.3-16,1.3
			c-6.5,0-13.1-0.6-19.5-2.1c-5.3-1.3-10.6-3.2-15.3-6.1l-0.1-0.1c-3.5-2.1-6.6-4.1-8.7-7.9c-1.9-3.5-2-5.8-2-9.7V159.7z"/>
		<linearGradient id="SVGID_9_" gradientUnits="userSpaceOnUse" x1="331.1221" y1="133.6006" x2="413.1288" y2="133.6006">
			<stop  offset="0" style="stop-color:#1F2156"/>
			<stop  offset="0.7419" style="stop-color:#1F2156"/>
			<stop  offset="0.7581" style="stop-color:#1F2156"/>
		</linearGradient>
		<path class="st11" d="M399.1,195.9c-4,0-7.1-1.6-9.6-4.8c-3.1-4-3.1-8.7-3.1-12.9l0-0.6c0-1.7,0.3-3.4,0.7-5.3
			c0.5-2.7,1.1-6.1,1.1-10.9c0-6.7-0.2-7.9-0.7-11.1c-0.1-0.9-0.3-2-0.5-3.5c-2.7-0.1-7.4-0.1-12.6-0.1c-11.2,0-16.5,0.3-18.4,0.5
			c-0.3,1.4-0.9,4.3-1.7,8.8l-4.4,24.7c-0.1,0.6-0.2,1.2-0.3,1.8c-0.4,3.3-1.1,8.3-7,8.3c-5.3,0-11.5-7.3-11.5-10.1
			c0-8.3,5.3-31.2,5.3-31.4c2.1-9.2,4.8-19.1,7.8-28.5c0.1-0.4,12.4-39.8,14.8-42.6c0.3-0.3,0.4-0.5,0.6-0.8l0.4-0.6l2.5-2.3
			c1.3-1.1,4.4-3.3,7.4-3.3c7.4,0,10.5,7.7,12,11.4c4.4,10.9,8.9,22.8,13.7,36.3c0.4,1.2,0.8,2.3,1.1,3.5c0.2,0.8,0.5,1.7,0.7,2.4
			c0.2,0,0.3,0,0.5-0.1c1.8-0.2,4.2-0.5,6.5-0.5c7.2,0,8.7,2.9,8.7,5.4c0,4.6-7.9,10.1-11,12.1c1.5,10.3,2.9,20.6,2.9,31.4
			c0,7.7-0.5,13.9-3.1,21.2l-0.5,1.3l-1.4,0.1C399.7,195.8,399.4,195.9,399.1,195.9z M365,122.9c-0.1,0.3-0.2,0.8-0.4,1.3
			c-0.2,0.8-0.8,2.5-1.2,3.9c2.4,0,4.6,0,6.5,0c2.3-0.1,5.5-0.1,10.1-0.2c0-0.1-0.3-0.8-0.4-1.1c-0.5-1.1-1.1-2.6-1.7-4.2
			c-1.1-2.7-2.4-5.8-3.1-7.3l-4.4-10.3L365,122.9z"/>
		<linearGradient id="SVGID_10_" gradientUnits="userSpaceOnUse" x1="333.2755" y1="133.6002" x2="410.9764" y2="133.6002">
			<stop  offset="0" style="stop-color:#1F2156"/>
			<stop  offset="0.7419" style="stop-color:#1F2156"/>
			<stop  offset="0.7581" style="stop-color:#1F2156"/>
		</linearGradient>
		<path class="st12" d="M361,130.3c-0.3-1.4,1.5-6.5,1.9-8c0.8-2.7,1.5-5.2,2.3-7.8l4.6-15.5c0.2,0.2,0.1,0,0.4,0.4l6.4,15
			c1.2,2.4,3.6,8.5,4.9,11.7c0.3,0.7,0.5,1.3,0.8,2c0.3,0.8,0.7,1,0.5,2C331.8,130.5,422.1,129.9,361,130.3 M411,129.8
			c0-5.3-13.1-2.5-15-2.6c-0.9-2.2-1.5-4.9-2.4-7.5c-4.3-12.1-8.9-24.3-13.7-36.2c-1.8-4.5-4.5-10-10-10c-2,0-4.7,1.6-5.9,2.7
			l-2.3,2.1c-0.4,0.6-0.5,0.7-1,1.3c-1.9,2.2-13.2,38.1-14.4,41.9c-2.8,9-5.5,18.8-7.7,28.3c-1.5,6.3-5.3,24.1-5.3,30.9
			c0,1.4,5.1,8,9.4,8c4.8,0,4.5-4.4,5.2-8.4l4.2-23.5c0.3-1.9,1.8-10.4,2.4-11.5c1-1.1,29.8-0.9,34.6-0.6c1,8.4,1.4,7.1,1.4,16.6
			c0,8.3-1.8,12.5-1.8,16.2c0,4.2-0.2,8.5,2.6,12.2c2.3,3,5,4.1,8.7,3.9c2.5-6.9,3-12.7,3-20.4c0-11.3-1.6-22.2-3.1-32.5
			C402.3,139.3,411,133.4,411,129.8"/>
	</g>
	<path class="st2" d="M415.5,190.9c-0.9-1.1-1.7-2.4-2.4-3.8c-0.6,3.4-1.4,6.8-2.7,10.5l-1,2.7c4.3-1.1,8.7-2.3,13.2-3.4
		C420.3,195.7,417.8,193.8,415.5,190.9z"/>
	<path class="st2" d="M455,177.9c-0.1-0.1-0.2-0.3-0.3-0.4l-3.3,6.4c-0.3,0.5-0.5,1.1-0.8,1.6c-0.7,1.3-1.5,3.1-2.7,4.9
		c6.3-1.6,12.7-3.2,19.3-4.8C462.7,184.7,458.4,182.1,455,177.9z"/>
	<path class="st2" d="M487.5,176.2c-0.7,0.9-1.7,2.2-3.5,4c-0.7,0.7-1.4,1.3-2.1,1.8c3-0.7,6-1.5,9.1-2.2c-1.3-1.7-2.2-3.1-2.8-4.5
		C487.8,175.6,487.7,175.9,487.5,176.2z"/>
	<path class="st0" d="M98.6,283.7c-28.6-13-54.2-30.1-72.2-56.5c-18.3-26.7-17.6-57.5,1.3-84.4c14.9-21.2,45.8-44.9,77.5-57.7
		c-36.5,27.8-69.4,53.8-69.9,99.9C34.8,231.1,67.1,257.2,98.6,283.7"/>
	<path class="st0" d="M797.7,287.3c91.5-63.1,92-137.4,2.7-199.7c31.6,8.6,73.1,45.4,84.1,75.6c9.7,26.7,2.6,50.5-14.7,71.7
		C850.4,258.6,825.2,274.5,797.7,287.3"/>
	<polygon class="st13" points="800,212.4 296.5,260.7 304.1,220.4 	"/>
	<path class="st13" d="M252.1,132.3c0,0-261.3,58.9-99.2,132.9C152.9,265.2,74.6,188.8,252.1,132.3z"/>
	<linearGradient id="SVGID_11_" gradientUnits="userSpaceOnUse" x1="114.0889" y1="192.8181" x2="800.0306" y2="192.8181">
		<stop  offset="0" style="stop-color:#1F2156"/>
		<stop  offset="0.18" style="stop-color:#1F2458"/>
		<stop  offset="0.3533" style="stop-color:#202C5F"/>
		<stop  offset="0.5239" style="stop-color:#22396C"/>
		<stop  offset="0.6928" style="stop-color:#224B80"/>
		<stop  offset="0.859" style="stop-color:#20629C"/>
		<stop  offset="1" style="stop-color:#117CC1"/>
	</linearGradient>
	<path class="st14" d="M800,212.4H307c1-25.1-3.2-50.3-17.1-73.2c-0.9-1.4-1.8-2.8-2.6-4.1l-4.2-5.9c-3.9-5-6.7-7.9-11.2-12.6
		c-2.5-2.6-8.1-7-10.9-9.2c-6.5-4.9-13.8-9.2-21.2-12.4c-6.6-2.9-13.2-5.1-20.3-6.3c-9.4-1.5-19.1-1.8-28.4-0.1
		c-10.6,1.9-20.9,6.1-29.2,12.6l-6.5,5.5c-2.1,2-4.1,3.9-5.7,6.3c-0.4,0.5-0.9,1.1-1.4,1.6c-3.2,3.8-5.9,8.4-8.3,13
		c-0.9,1.7-1.1,3.1,1.2,3.5c1.6,0.3,6.8-2.6,8.6-3.3c5.7-2.5,11.5-4.7,17.2-6.7c6-2.1,12-3.7,18.5-5.2c6.1-1.4,14.6-2.6,21.2-2.6
		c9.9,0,19.7,1.6,27.8,5.2c3.8,1.7,6.6,3.6,9.5,5.8c1.6,1.2,6.8,6.1,7.3,8.2c-7.3,1.4-15.1,3.6-22.2,5.5
		c-20.3,5.6-42.1,12.9-60.7,23c-10,5.4-19,10.8-27.5,17.8l-5.7,5c-3.6,3.5-6.9,7-10,11c-3.1,4.1-5.9,8.4-8,13.3
		c-3.8,8.7-4.2,13.6-1.1,22.8c5.5,16.6,21.5,27.9,36.5,33.8c6.9,2.7,13.4,5.1,20.9,7c14.9,3.7,31.6,6.5,48,7.4
		c17.3,1,35.8,1.6,53.5,0.4l0-16.8l-16.9,0.4c-21.5,0-44.3-3-61.4-11.1c-5.9-2.8-11.5-6.7-16.1-11.4c-4.6-4.8-8.4-11.5-9.3-18.5
		c-0.5-4.2,1.7-11.7,3-15.3c3.5-9.5,10.9-20.3,17.8-26c0.5-0.4,0.7-0.6,1.2-1.1c0.9-0.8,1.5-1.3,2.4-2.1c0.8-0.7,1.8-1.5,2.6-2.1
		c1.9-1.3,3.5-2.6,5.4-3.8c13.4-8.8,29-15.3,44.5-19.3c4.6-1.2,10.1-2.7,15-3.3c0.8,1.1,2.5,5.3,3.2,6.9
		c5.2,12.6,9.4,25.6,12.4,39.2c0.6,2.8,1.3,5.6,1.8,8.6c0.5,2.8,1,5.7,1.5,8.7h-12.1c-0.4-1.2-0.4-2.5-0.7-3.8
		c-0.2-1.1-0.6-2.4-1-3.6c-0.7-2-1.9-4.5-2.9-6.1c-2.4-3.7-3.2-4.6-6.1-7.4c-0.8-0.8-1.5-1.3-2.4-2.1c-6.6-5.3-17.9-8.7-27.9-8.7
		c-5,0-10.7,1.1-15,2.4c-4,1.2-8.7,3.5-11.8,5.8c-3.9,3-5.8,5-8.6,9.1c-1.9,2.8-4.4,9.5-4.4,13.7v4.4c0,4.5,3,11.4,5,14.4
		c12.6,19.2,42.1,27.2,61.4,13.3l4-3.3c1.5-1.1,2.4-2.5,3.5-4c2.3-2.8,3.7-6,5.1-9.7h16.2c2.1,16.3,3.6,33.7,3.6,48.1l-0.3,23
		c0.8-1.1,5-13.8,5.8-16.3c3.7-11.6,6.8-23.3,9.2-35.2c1.3-6.4,2.4-13,3.2-19.6l0.1-2L800,212.4z"/>
	<g>
		<path class="st1" d="M522.1,262.8c-0.8,1.1-1.7,1.8-2.7,2.3c-1,0.5-2.2,0.7-3.5,0.7c-2.9,0-5.3-1-7.1-3.1c-1.8-2-2.7-4.7-2.7-8
			c0-3.3,0.9-6,2.7-8c1.8-2,4.2-3,7.3-3c2.6,0,4.8,0.6,6.5,1.9c1.7,1.3,2.7,3,3,5.2h-4.4c-0.3-1.1-0.8-1.9-1.6-2.5
			c-0.8-0.6-1.9-0.9-3.2-0.9c-1.8,0-3.1,0.6-4.1,1.9c-1,1.3-1.5,3.1-1.5,5.3c0,2.3,0.5,4.1,1.6,5.4c1,1.3,2.5,1.9,4.3,1.9
			c1.4,0,2.5-0.4,3.4-1.2c0.9-0.8,1.5-1.9,1.7-3.3h-4.8v-3.6h8.7v11.4h-2.9L522.1,262.8z"/>
		<path class="st1" d="M529.3,265.2v-15.5h3.9v2.7c0.5-1.1,1.2-1.8,1.9-2.3c0.7-0.5,1.6-0.8,2.6-0.8c0.2,0,0.3,0,0.4,0
			c0.1,0,0.2,0,0.2,0l0,4.2h-1.4c-1.1,0-2,0.3-2.6,0.9c-0.6,0.6-0.9,1.5-0.9,2.6v8.2H529.3z"/>
		<path class="st1" d="M539.8,257.5c0-2.6,0.7-4.6,2.1-6.1c1.4-1.5,3.3-2.2,5.8-2.2c2.4,0,4.4,0.7,5.8,2.2c1.4,1.5,2.1,3.5,2.1,6.1
			c0,2.6-0.7,4.6-2.1,6.1c-1.4,1.5-3.3,2.2-5.8,2.2c-2.4,0-4.4-0.7-5.8-2.2C540.5,262.1,539.8,260,539.8,257.5z M544,257.5
			c0,1.5,0.3,2.7,0.9,3.6c0.6,0.8,1.5,1.3,2.7,1.3c1.2,0,2-0.4,2.7-1.3c0.6-0.8,1-2,1-3.6c0-1.5-0.3-2.7-0.9-3.5
			c-0.6-0.8-1.5-1.2-2.7-1.2c-1.2,0-2.1,0.4-2.7,1.2C544.3,254.7,544,255.9,544,257.5z"/>
		<path class="st1" d="M572.1,249.7v15.5h-4.1v-1.8c-0.6,0.8-1.3,1.3-2.1,1.7c-0.8,0.4-1.7,0.6-2.6,0.6c-1.7,0-3-0.4-3.8-1.3
			c-0.8-0.9-1.3-2.2-1.3-4v-10.6h4.2v9.4c0,1.1,0.2,1.9,0.6,2.4s1,0.7,1.8,0.7c1,0,1.7-0.3,2.3-0.9c0.6-0.6,0.9-1.4,0.9-2.4v-9.2
			H572.1z"/>
		<path class="st1" d="M575.9,271.5v-21.7h4v2.1c0.6-0.9,1.3-1.6,2-2s1.6-0.6,2.6-0.6c1.9,0,3.5,0.8,4.7,2.3
			c1.2,1.5,1.8,3.5,1.8,5.9c0,2.5-0.6,4.5-1.8,6c-1.2,1.5-2.7,2.3-4.6,2.3c-1,0-1.9-0.2-2.6-0.6c-0.8-0.4-1.4-1-1.9-1.8v8.1H575.9z
			 M586.7,257.6c0-1.6-0.3-2.8-0.9-3.6c-0.6-0.8-1.4-1.2-2.6-1.2c-1.1,0-1.9,0.4-2.5,1.2c-0.6,0.8-0.9,2-0.9,3.6
			c0,1.5,0.3,2.6,0.9,3.4c0.6,0.8,1.5,1.2,2.6,1.2c1,0,1.9-0.4,2.5-1.2C586.4,260.1,586.7,259,586.7,257.6z"/>
		<path class="st1" d="M601.2,257.5c0-2.6,0.7-4.6,2.1-6.1c1.4-1.5,3.3-2.2,5.8-2.2c2.4,0,4.4,0.7,5.8,2.2c1.4,1.5,2.1,3.5,2.1,6.1
			c0,2.6-0.7,4.6-2.1,6.1c-1.4,1.5-3.3,2.2-5.8,2.2c-2.4,0-4.4-0.7-5.8-2.2C601.9,262.1,601.2,260,601.2,257.5z M605.4,257.5
			c0,1.5,0.3,2.7,0.9,3.6c0.6,0.8,1.5,1.3,2.7,1.3c1.2,0,2-0.4,2.7-1.3c0.6-0.8,1-2,1-3.6c0-1.5-0.3-2.7-0.9-3.5
			c-0.6-0.8-1.5-1.2-2.7-1.2c-1.2,0-2.1,0.4-2.7,1.2C605.7,254.7,605.4,255.9,605.4,257.5z"/>
		<path class="st1" d="M620.5,265.2v-12.6h-2.2v-2.9h2.2v-1.4c0-1.4,0.4-2.5,1.1-3.2s1.9-1,3.5-1c0.3,0,0.6,0,0.9,0
			c0.3,0,0.7,0,1,0.1v3.3H626c-0.6,0-1,0.1-1.2,0.2c-0.2,0.2-0.3,0.5-0.3,0.9v1.1h2.6v2.9h-2.6v12.6H620.5z"/>
		<path class="st1" d="M656.2,258c-0.2,2.4-1.1,4.3-2.8,5.7c-1.7,1.4-3.9,2.1-6.6,2.1c-3.1,0-5.5-1-7.3-2.9
			c-1.7-1.9-2.6-4.7-2.6-8.2c0-3.6,0.9-6.3,2.6-8.2c1.8-1.9,4.3-2.9,7.6-2.9c2.7,0,4.8,0.7,6.4,2c1.6,1.3,2.4,3.2,2.6,5.5h-4.3
			c-0.2-1.2-0.7-2.1-1.5-2.7c-0.8-0.6-1.9-0.9-3.2-0.9c-1.9,0-3.3,0.6-4.3,1.8c-1,1.2-1.5,3-1.5,5.4c0,2.3,0.5,4,1.5,5.3
			c1,1.2,2.4,1.9,4.2,1.9c1.3,0,2.4-0.3,3.2-1c0.8-0.7,1.4-1.6,1.6-2.9H656.2z"/>
		<path class="st1" d="M658.5,257.5c0-2.6,0.7-4.6,2.1-6.1c1.4-1.5,3.3-2.2,5.8-2.2c2.4,0,4.4,0.7,5.8,2.2c1.4,1.5,2.1,3.5,2.1,6.1
			c0,2.6-0.7,4.6-2.1,6.1c-1.4,1.5-3.3,2.2-5.8,2.2c-2.4,0-4.4-0.7-5.8-2.2C659.2,262.1,658.5,260,658.5,257.5z M662.7,257.5
			c0,1.5,0.3,2.7,0.9,3.6c0.6,0.8,1.5,1.3,2.7,1.3c1.2,0,2-0.4,2.7-1.3c0.6-0.8,1-2,1-3.6c0-1.5-0.3-2.7-0.9-3.5s-1.5-1.2-2.7-1.2
			c-1.2,0-2.1,0.4-2.7,1.2C663,254.7,662.7,255.9,662.7,257.5z"/>
		<path class="st1" d="M677,265.2v-15.5h3.9v1.7c0.6-0.7,1.2-1.2,1.9-1.6c0.7-0.4,1.5-0.5,2.4-0.5c1,0,1.8,0.2,2.5,0.6
			s1.3,0.9,1.8,1.7c0.5-0.8,1.2-1.3,1.9-1.7c0.7-0.4,1.6-0.6,2.5-0.6c1.6,0,2.8,0.5,3.7,1.4c0.9,0.9,1.4,2.2,1.4,3.7v10.8H695v-10
			c0-0.8-0.2-1.3-0.6-1.7c-0.4-0.4-1-0.6-1.7-0.6c-0.8,0-1.4,0.3-1.9,0.8c-0.5,0.5-0.7,1.2-0.7,2.2v9.4H686v-10
			c0-0.8-0.2-1.3-0.6-1.8c-0.4-0.4-0.9-0.6-1.7-0.6c-0.8,0-1.4,0.3-1.9,0.8c-0.5,0.5-0.7,1.3-0.7,2.2v9.4H677z"/>
		<path class="st1" d="M702.8,271.5v-21.7h4v2.1c0.6-0.9,1.3-1.6,2-2s1.6-0.6,2.6-0.6c1.9,0,3.5,0.8,4.7,2.3
			c1.2,1.5,1.8,3.5,1.8,5.9c0,2.5-0.6,4.5-1.8,6c-1.2,1.5-2.7,2.3-4.6,2.3c-1,0-1.9-0.2-2.6-0.6c-0.8-0.4-1.4-1-1.9-1.8v8.1H702.8z
			 M713.6,257.6c0-1.6-0.3-2.8-0.9-3.6c-0.6-0.8-1.4-1.2-2.6-1.2c-1.1,0-1.9,0.4-2.5,1.2c-0.6,0.8-0.9,2-0.9,3.6
			c0,1.5,0.3,2.6,0.9,3.4c0.6,0.8,1.5,1.2,2.6,1.2c1,0,1.9-0.4,2.5-1.2C713.3,260.1,713.6,259,713.6,257.6z"/>
		<path class="st1" d="M729.5,263.3c-0.5,0.8-1.2,1.4-2.1,1.8c-0.8,0.4-1.8,0.6-3,0.6c-1.5,0-2.7-0.4-3.5-1.3
			c-0.8-0.9-1.2-2.1-1.2-3.7c0-1.5,0.4-2.6,1.2-3.4c0.8-0.8,2.2-1.3,4-1.6c0.4-0.1,1-0.1,1.7-0.2c1.8-0.2,2.6-0.7,2.6-1.5
			c0-0.6-0.2-1.1-0.6-1.3c-0.4-0.3-1-0.4-2-0.4c-0.8,0-1.5,0.2-1.9,0.5c-0.4,0.3-0.7,0.8-0.7,1.4v0.2h-3.9v-0.3
			c0-1.6,0.6-2.8,1.7-3.7c1.1-0.9,2.7-1.4,4.7-1.4c2.2,0,3.8,0.4,5,1.1c1.2,0.8,1.7,1.8,1.7,3.3v8.8c0,0.6,0.1,1.1,0.2,1.4
			c0.1,0.3,0.4,0.6,0.7,0.7v0.7h-4.3c-0.1-0.3-0.3-0.6-0.3-0.9C729.5,264,729.5,263.7,729.5,263.3z M729.4,257.6
			c-0.7,0.3-1.5,0.6-2.3,0.8c-0.9,0.2-1.3,0.3-1.4,0.3c-0.7,0.2-1.2,0.5-1.5,0.8c-0.3,0.3-0.4,0.7-0.4,1.3c0,0.6,0.2,1,0.6,1.4
			c0.4,0.3,0.9,0.5,1.5,0.5c1.1,0,2-0.3,2.6-0.9c0.6-0.6,1-1.5,1-2.6V257.6z"/>
		<path class="st1" d="M737,265.2v-15.5h4.1v1.8c0.6-0.8,1.3-1.3,2.1-1.7c0.8-0.4,1.7-0.6,2.6-0.6c1.7,0,3,0.4,3.8,1.3
			c0.9,0.9,1.3,2.2,1.3,4v10.6h-4.2v-9.4c0-1.1-0.2-1.9-0.6-2.4c-0.4-0.5-1-0.7-1.8-0.7c-1,0-1.8,0.3-2.3,0.9
			c-0.6,0.6-0.9,1.4-0.9,2.4v9.2H737z"/>
		<path class="st1" d="M754.5,248v-3.8h4.2v3.8H754.5z M754.5,265.2v-15.5h4.2v15.5H754.5z"/>
		<path class="st1" d="M772,260.5h4.1c-0.4,1.6-1.3,2.9-2.5,3.8c-1.3,0.9-2.8,1.4-4.6,1.4c-2.2,0-4-0.8-5.3-2.3s-2-3.6-2-6.1
			c0-2.5,0.6-4.5,1.9-6c1.3-1.5,3.1-2.2,5.3-2.2c2.4,0,4.2,0.7,5.5,2.2s1.9,3.5,1.9,6.2c0,0.3,0,0.5,0,0.7c0,0.1,0,0.3,0,0.4h-10.4
			c0.1,1.2,0.4,2.1,0.9,2.8c0.5,0.6,1.3,0.9,2.3,0.9c0.7,0,1.3-0.1,1.8-0.4C771.3,261.6,771.7,261.1,772,260.5z M765.9,255.8h6.1
			c0-1-0.3-1.8-0.8-2.4c-0.5-0.5-1.3-0.8-2.2-0.8c-0.9,0-1.6,0.3-2.1,0.8C766.3,254,766,254.8,765.9,255.8z"/>
		<path class="st1" d="M778.2,260.2h4.1c0,0.8,0.3,1.4,0.9,1.8s1.3,0.6,2.4,0.6c0.8,0,1.4-0.1,1.9-0.4c0.4-0.3,0.7-0.7,0.7-1.1
			c0-0.7-0.8-1.2-2.5-1.6c-0.7-0.1-1.2-0.3-1.6-0.4c-2-0.5-3.4-1.1-4.2-1.8c-0.8-0.7-1.2-1.7-1.2-2.8c0-1.6,0.6-2.8,1.7-3.8
			c1.1-0.9,2.7-1.4,4.7-1.4c2.1,0,3.7,0.5,4.9,1.4c1.2,0.9,1.8,2.2,1.9,3.9h-4c0-0.7-0.3-1.2-0.8-1.5c-0.5-0.4-1.1-0.5-2-0.5
			c-0.8,0-1.4,0.1-1.8,0.4c-0.4,0.2-0.6,0.6-0.6,1.1c0,0.6,1,1.2,3.1,1.6c0.5,0.1,0.8,0.2,1.1,0.3c2.1,0.5,3.5,1.1,4.2,1.8
			c0.8,0.7,1.1,1.7,1.1,2.9c0,1.8-0.6,3.1-1.9,4c-1.2,0.9-3,1.4-5.4,1.4c-2.1,0-3.8-0.5-5-1.4c-1.2-1-1.8-2.3-1.8-4V260.2z"/>
	</g>
</g>
</svg>
