<svg id="google_play" xmlns="http://www.w3.org/2000/svg" width="170" height="50" viewBox="0 0 170 50">
  <defs>
    <style>
      .cls-1 {
        fill: #fff;
        fill-rule: evenodd;
      }
    </style>
  </defs>
  <rect id="Rounded_Rectangle_873" data-name="Rounded Rectangle 873" width="170" height="50" rx="6" ry="6"/>
  <path id="Get_It_On" data-name="Get It On" class="cls-1" d="M1596.36,3684.93h-3.35v0.99h2.14v2.07a1.772,1.772,0,0,1-.85.52,4.275,4.275,0,0,1-1.2.15,2.3,2.3,0,0,1-1.92-.92,3.9,3.9,0,0,1-.71-2.47v-0.76a4.159,4.159,0,0,1,.63-2.49,2.143,2.143,0,0,1,1.86-.86,2,2,0,0,1,2.18,1.84h1.22a3.2,3.2,0,0,0-1.08-2.1,3.5,3.5,0,0,0-2.33-.74,3.4,3.4,0,0,0-2.74,1.15,4.895,4.895,0,0,0-.97,3.24v0.8a5.23,5.23,0,0,0,.49,2.27,3.561,3.561,0,0,0,1.36,1.51,3.806,3.806,0,0,0,2,.53,5.124,5.124,0,0,0,1.96-.34,2.767,2.767,0,0,0,1.31-1v-3.39Zm7.29,3.4-0.72-.56a2.644,2.644,0,0,1-.75.67,2.055,2.055,0,0,1-1.06.26,1.858,1.858,0,0,1-1.44-.63,2.379,2.379,0,0,1-.59-1.64h4.65v-0.49a3.825,3.825,0,0,0-.74-2.52,2.585,2.585,0,0,0-2.09-.89,2.792,2.792,0,0,0-1.52.46,3.093,3.093,0,0,0-1.09,1.25,4.166,4.166,0,0,0-.39,1.83v0.22a3.377,3.377,0,0,0,.88,2.45,3,3,0,0,0,2.27.92,2.9,2.9,0,0,0,2.59-1.33h0Zm-1.57-4.34a2.206,2.206,0,0,1,.48,1.39v0.09h-3.44a2.513,2.513,0,0,1,.6-1.45,1.548,1.548,0,0,1,1.19-.52A1.475,1.475,0,0,1,1602.08,3683.99Zm3.44-2.99v1.66h-1.25v0.91h1.25v4.26a2.033,2.033,0,0,0,.4,1.35,1.439,1.439,0,0,0,1.18.48,3.559,3.559,0,0,0,.9-0.13v-0.95a2.881,2.881,0,0,1-.55.08,0.73,0.73,0,0,1-.59-0.21,0.956,0.956,0,0,1-.17-0.62v-4.26h1.28v-0.91h-1.28V3681h-1.17Zm8.53-.71h-1.22v9.24h1.22v-9.24Zm2.47,0.71v1.66h-1.25v0.91h1.25v4.26a2.033,2.033,0,0,0,.4,1.35,1.439,1.439,0,0,0,1.18.48,3.5,3.5,0,0,0,.9-0.13v-0.95a2.881,2.881,0,0,1-.55.08,0.73,0.73,0,0,1-.59-0.21,0.956,0.956,0,0,1-.17-0.62v-4.26h1.28v-0.91h-1.28V3681h-1.17Zm14.34,3.62a5.824,5.824,0,0,0-.46-2.37,3.41,3.41,0,0,0-1.31-1.55,3.773,3.773,0,0,0-3.89,0,3.455,3.455,0,0,0-1.31,1.57,5.6,5.6,0,0,0-.47,2.35v0.67a5.519,5.519,0,0,0,.48,2.3,3.583,3.583,0,0,0,1.31,1.53,3.54,3.54,0,0,0,1.94.54,3.419,3.419,0,0,0,3.25-2.08,5.824,5.824,0,0,0,.46-2.37v-0.59Zm-1.22.68a4.094,4.094,0,0,1-.66,2.46,2.356,2.356,0,0,1-3.68-.05,4.192,4.192,0,0,1-.66-2.5v-0.68a4.043,4.043,0,0,1,.68-2.44,2.343,2.343,0,0,1,3.66,0,4.114,4.114,0,0,1,.66,2.52v0.69Zm2.86-2.64v6.87h1.17v-4.89a2.039,2.039,0,0,1,.68-0.8,1.63,1.63,0,0,1,1-.31,1.352,1.352,0,0,1,1.04.36,1.594,1.594,0,0,1,.34,1.09v4.55h1.17v-4.54q-0.015-2.46-2.19-2.46a2.5,2.5,0,0,0-2.06.99l-0.04-.86h-1.11Z" transform="translate(-1540 -3672)"/>
  <path id="Google_Play-2" data-name="Google Play" class="cls-1" d="M1599.88,3704.1h-5.42v1.6h3.46v3.35a2.934,2.934,0,0,1-1.38.83,6.974,6.974,0,0,1-1.93.24,3.71,3.71,0,0,1-3.11-1.48,6.34,6.34,0,0,1-1.15-4v-1.22a6.823,6.823,0,0,1,1.03-4.03,3.5,3.5,0,0,1,3-1.39,3.266,3.266,0,0,1,3.53,2.98h1.97a5.266,5.266,0,0,0-1.75-3.39,5.636,5.636,0,0,0-3.76-1.2,5.457,5.457,0,0,0-4.42,1.86,7.854,7.854,0,0,0-1.58,5.23v1.3a8.427,8.427,0,0,0,.8,3.66,5.594,5.594,0,0,0,2.19,2.44,6.121,6.121,0,0,0,3.24.85,8.754,8.754,0,0,0,3.16-.53,4.586,4.586,0,0,0,2.12-1.63v-5.47Zm2.48,1.91a5.986,5.986,0,0,0,1.4,4.16,4.669,4.669,0,0,0,3.65,1.56,4.89,4.89,0,0,0,2.65-.71,4.771,4.771,0,0,0,1.78-2.01,6.649,6.649,0,0,0,.62-2.91v-0.13a6.043,6.043,0,0,0-1.4-4.17,4.672,4.672,0,0,0-3.67-1.57,4.888,4.888,0,0,0-2.61.71,4.785,4.785,0,0,0-1.78,2.01,6.471,6.471,0,0,0-.64,2.93v0.13Zm2.77-3.1a2.705,2.705,0,0,1,2.26-1.12,2.749,2.749,0,0,1,2.3,1.13,4.733,4.733,0,0,1,.87,2.96,5.151,5.151,0,0,1-.85,3.17,2.719,2.719,0,0,1-2.3,1.14,2.76,2.76,0,0,1-2.29-1.12,4.761,4.761,0,0,1-.85-2.97A5.091,5.091,0,0,1,1605.13,3702.91Zm9.2,3.1a6.034,6.034,0,0,0,1.4,4.16,4.7,4.7,0,0,0,3.66,1.56,4.89,4.89,0,0,0,2.65-.71,4.683,4.683,0,0,0,1.77-2.01,6.511,6.511,0,0,0,.62-2.91v-0.13a6,6,0,0,0-1.4-4.17,4.651,4.651,0,0,0-3.66-1.57,4.863,4.863,0,0,0-2.61.71,4.719,4.719,0,0,0-1.78,2.01,6.475,6.475,0,0,0-.65,2.93v0.13Zm2.77-3.1a2.723,2.723,0,0,1,2.27-1.12,2.761,2.761,0,0,1,2.3,1.13,4.733,4.733,0,0,1,.87,2.96,5.218,5.218,0,0,1-.85,3.17,2.9,2.9,0,0,1-4.59.02,4.763,4.763,0,0,1-.86-2.97A5.155,5.155,0,0,1,1617.1,3702.91Zm10.47,7.26a3.786,3.786,0,0,0,3.15,1.56,3.893,3.893,0,0,0,3.11-1.31v0.96a2.961,2.961,0,0,1-.78,2.19,2.888,2.888,0,0,1-2.16.78,3.694,3.694,0,0,1-2.98-1.51l-0.98,1.14a4,4,0,0,0,1.75,1.4,5.609,5.609,0,0,0,2.35.52,4.748,4.748,0,0,0,3.43-1.24,4.525,4.525,0,0,0,1.27-3.4v-10.83H1634l-0.09,1.23a4.147,4.147,0,0,0-6.35.1,6.523,6.523,0,0,0-1.2,4.13A6.844,6.844,0,0,0,1627.57,3710.17Zm1.48-7.25a2.516,2.516,0,0,1,2.16-1.08,2.82,2.82,0,0,1,2.62,1.59v5.06a2.776,2.776,0,0,1-2.64,1.63,2.479,2.479,0,0,1-2.15-1.07,4.972,4.972,0,0,1-.77-2.95A5.384,5.384,0,0,1,1629.05,3702.92Zm11.61-7.14h-1.9v15.75h1.9v-15.75Zm11.82,13.81-1.16-.9a4.5,4.5,0,0,1-1.22,1.09,3.317,3.317,0,0,1-1.7.41,3.007,3.007,0,0,1-2.33-1.01,3.886,3.886,0,0,1-.96-2.65h7.51v-0.79a6.2,6.2,0,0,0-1.2-4.09,4.149,4.149,0,0,0-3.36-1.42,4.45,4.45,0,0,0-2.46.73,4.984,4.984,0,0,0-1.76,2.03,6.69,6.69,0,0,0-.63,2.95v0.35a5.514,5.514,0,0,0,1.41,3.96,4.859,4.859,0,0,0,3.68,1.48,4.659,4.659,0,0,0,4.18-2.14h0Zm-2.53-7.01a3.684,3.684,0,0,1,.78,2.24v0.15h-5.56a4.053,4.053,0,0,1,.96-2.35,2.549,2.549,0,0,1,1.93-.83A2.4,2.4,0,0,1,1649.95,3702.58Zm15.85,3.1a5.794,5.794,0,0,0,3.89-1.17,4.172,4.172,0,0,0,1.36-3.35,4.225,4.225,0,0,0-1.39-3.31,5.564,5.564,0,0,0-3.84-1.25h-5.51v14.93h1.97v-5.85h3.52Zm-3.52-7.47h3.65a3.332,3.332,0,0,1,2.31.83,2.832,2.832,0,0,1,.84,2.14,2.722,2.722,0,0,1-.84,2.15,3.522,3.522,0,0,1-2.42.74h-3.54v-5.86Zm13.04-2.43h-1.89v15.75h1.89v-15.75Zm11.88,15.75v-0.16a6.316,6.316,0,0,1-.39-2.44v-5.1a3.453,3.453,0,0,0-1.13-2.64,4.377,4.377,0,0,0-3-.96,5.371,5.371,0,0,0-2.22.45,3.927,3.927,0,0,0-1.6,1.23,2.559,2.559,0,0,0-.59,1.6h1.9a1.513,1.513,0,0,1,.69-1.24,2.788,2.788,0,0,1,1.7-.51,2.372,2.372,0,0,1,1.76.59,2.143,2.143,0,0,1,.59,1.58v0.87h-1.84a6.205,6.205,0,0,0-3.71.96,3.139,3.139,0,0,0-1.32,2.69,3.02,3.02,0,0,0,1.05,2.36,3.906,3.906,0,0,0,2.69.92,4.205,4.205,0,0,0,3.16-1.37,4.018,4.018,0,0,0,.27,1.17h1.99Zm-6.67-1.95a1.734,1.734,0,0,1-.59-1.39c0-1.36,1.16-2.04,3.49-2.04h1.48v2.27a2.785,2.785,0,0,1-1.16,1.2,3.28,3.28,0,0,1-1.69.46A2.274,2.274,0,0,1,1680.53,3709.58Zm9.96-9.15h-2.07l3.96,10.98-0.42,1.12a2.886,2.886,0,0,1-.89,1.43,2.523,2.523,0,0,1-1.5.39l-0.52-.04v1.54l0.71,0.13,0.36,0.03q2.25,0,3.29-2.77l4.46-12.81h-2.03l-2.58,8.32Z" transform="translate(-1540 -3672)"/>
  <path class="cls-1" d="M1556.92,3682.38a2.544,2.544,0,0,0-2.45-.12l13.22,13.5,4.32-4.42Zm-3.66,1.13a2.741,2.741,0,0,0-.26,1.17v24.69a2.633,2.633,0,0,0,.26,1.16l13.21-13.52Zm14.43,14.74-13.2,13.51a2.512,2.512,0,0,0,1.1.24,2.456,2.456,0,0,0,1.33-.37l15.09-8.96Zm10.07-3.5a0.031,0.031,0,0,0-.02-0.01l-4.19-2.49-4.64,4.75,4.64,4.75s4.2-2.49,4.21-2.5A2.661,2.661,0,0,0,1577.76,3694.75Z" transform="translate(-1540 -3672)"/>
</svg>
